<svg width="16" height="16" viewBox="0 0 16 16" fill="none" xmlns="http://www.w3.org/2000/svg">
<path d="M5.33337 1.33337L6.58671 2.58671M9.41337 2.58671L10.6667 1.33337M6.00004 4.75337V4.08671C5.98796 3.81654 6.03073 3.54672 6.12579 3.29354C6.22085 3.04036 6.36622 2.80906 6.55313 2.61361C6.74004 2.41815 6.96461 2.26259 7.21329 2.15631C7.46197 2.05003 7.7296 1.99524 8.00004 1.99524C8.27048 1.99524 8.53811 2.05003 8.7868 2.15631C9.03548 2.26259 9.26005 2.41815 9.44695 2.61361C9.63386 2.80906 9.77923 3.04036 9.87429 3.29354C9.96935 3.54672 10.0121 3.81654 10 4.08671V4.75337M8.00004 13.3334C5.80004 13.3334 4.00004 11.5334 4.00004 9.33337V7.33337C4.00004 6.62613 4.28099 5.94785 4.78109 5.44776C5.28119 4.94766 5.95946 4.66671 6.66671 4.66671H9.33337C10.0406 4.66671 10.7189 4.94766 11.219 5.44776C11.7191 5.94785 12 6.62613 12 7.33337V9.33337C12 11.5334 10.2 13.3334 8.00004 13.3334ZM8.00004 13.3334V7.33337M4.35337 6.00004C3.06671 5.86671 2.00004 4.73337 2.00004 3.33337M4.00004 8.66671H1.33337M2.00004 14C2.00004 12.6 3.13337 11.4 4.53337 11.3334M13.98 3.33337C13.98 4.73337 12.9134 5.86671 11.6467 6.00004M14.6667 8.66671H12M11.4667 11.3334C12.8667 11.4 14 12.6 14 14" stroke="#D61C00" strokeWidth="1.5" strokeLinecap="round" strokeLinejoin="round"/>
</svg>
