<svg width="16" height="16" viewBox="0 0 16 16" fill="none" xmlns="http://www.w3.org/2000/svg">
<g clipPath="url(#clip0_52_674)">
<path fill-rule="evenodd" clip-rule="evenodd" d="M0.833252 8.00004C0.833252 4.042 4.04188 0.833374 7.99992 0.833374C11.0745 0.833374 13.6969 2.7695 14.7144 5.48905L14.7164 5.49437C15.0075 6.27432 15.1666 7.1186 15.1666 8.00004C15.1666 8.8812 15.0076 9.72523 14.7166 10.505L14.7141 10.5118C13.6964 13.2309 11.0742 15.1667 7.99992 15.1667C4.04187 15.1667 0.833252 11.958 0.833252 8.00004ZM9.68269 2.06577C11.3339 2.53309 12.7035 3.67102 13.4786 5.16671H10.842C10.6467 4.32254 10.3861 3.58843 10.1256 2.98498C9.97402 2.63367 9.82215 2.32596 9.68269 2.06577ZM8.39102 1.84558C8.26169 1.83748 8.13128 1.83337 7.99992 1.83337C7.86855 1.83337 7.73815 1.83748 7.60883 1.84558C7.56471 1.91224 7.51034 1.99713 7.44837 2.0994C7.27105 2.39202 7.03204 2.82586 6.79232 3.38127C6.57558 3.88341 6.35897 4.48325 6.18658 5.16671H9.81326C9.64087 4.48325 9.42425 3.8834 9.20752 3.38126C8.9678 2.82586 8.72879 2.39201 8.55147 2.0994C8.4895 1.99713 8.43513 1.91223 8.39102 1.84558ZM10.0196 6.16671H5.98024C5.88849 6.73624 5.83325 7.34932 5.83325 7.99997C5.83325 8.65068 5.8885 9.26381 5.98026 9.83337H10.0196C10.1113 9.26381 10.1666 8.65068 10.1666 7.99997C10.1666 7.34931 10.1113 6.73623 10.0196 6.16671ZM9.81323 10.8334H6.18661C6.35899 11.5168 6.5756 12.1166 6.79232 12.6187C7.03204 13.1741 7.27105 13.608 7.44837 13.9006C7.51036 14.0029 7.56474 14.0878 7.60887 14.1545C7.73818 14.1626 7.86857 14.1667 7.99992 14.1667C8.13127 14.1667 8.26166 14.1626 8.39097 14.1545C8.43509 14.0878 8.48947 14.0029 8.55147 13.9006C8.72879 13.608 8.9678 13.1741 9.20752 12.6187C9.42424 12.1166 9.64085 11.5168 9.81323 10.8334ZM9.68264 13.9343C9.82211 13.6741 9.974 13.3664 10.1257 13.015C10.3861 12.4116 10.6467 11.6775 10.842 10.8334H13.4786C12.7035 12.3291 11.3339 13.467 9.68264 13.9343ZM11.0314 9.83337C11.1163 9.25998 11.1666 8.64721 11.1666 7.99997C11.1666 7.35278 11.1163 6.74006 11.0315 6.16671H13.8895C14.0696 6.74587 14.1666 7.36163 14.1666 8.00004C14.1666 8.63846 14.0696 9.25421 13.8895 9.83337H11.0314ZM5.87419 2.98498C5.61373 3.58844 5.35313 4.32254 5.15782 5.16671H2.52125C3.29633 3.67102 4.66592 2.53309 6.31715 2.06577C6.1777 2.32595 6.02582 2.63367 5.87419 2.98498ZM4.96837 6.16671H2.11035C1.93027 6.74587 1.83325 7.36163 1.83325 8.00004C1.83325 8.63846 1.93027 9.25421 2.11036 9.83337H4.96839C4.88351 9.25998 4.83325 8.64721 4.83325 7.99997C4.83325 7.35279 4.8835 6.74006 4.96837 6.16671ZM2.52126 10.8334H5.15785C5.35315 11.6775 5.61374 12.4116 5.87419 13.015C6.02583 13.3664 6.17773 13.6741 6.31719 13.9343C4.66594 13.467 3.29634 12.3291 2.52126 10.8334Z" fill="#0068FA"/>
</g>
<defs>
<clipPath id="clip0_52_674">
<rect width="16" height="16" fill="white"/>
</clipPath>
</defs>
</svg>
