<svg width="295" height="59" viewBox="0 0 295 59" fill="none" xmlns="http://www.w3.org/2000/svg">
<g clipPath="url(#clip0_1_7039)">
<path d="M94.4546 20.1593C94.4353 20.1755 94.4128 20.1874 94.3883 20.1943C94.3639 20.2011 94.3383 20.2026 94.3132 20.1988C94.1979 20.1807 94.0904 20.1304 94.0036 20.0538C93.8369 19.9318 93.6615 19.8217 93.4787 19.7243C93.2188 19.5887 92.9461 19.4784 92.6643 19.3948C92.2766 19.2886 91.8755 19.2376 91.473 19.2432C90.8802 19.2345 90.2924 19.3514 89.75 19.5859C89.257 19.805 88.8253 20.1373 88.4914 20.5547C88.1308 21.0074 87.8633 21.5244 87.704 22.077C87.3439 23.4117 87.3439 24.815 87.704 26.1497C87.8635 26.6982 88.131 27.2108 88.4914 27.6588C88.8196 28.0601 89.2391 28.3805 89.7164 28.5946C90.2206 28.8132 90.7668 28.9233 91.3182 28.9175C92.1156 28.9381 92.9018 28.7296 93.5796 28.3178C93.7805 28.1989 93.9697 28.0621 94.145 27.9093C94.2291 27.8115 94.346 27.7461 94.4748 27.7247C94.519 27.7214 94.5633 27.7293 94.6034 27.7478C94.6435 27.7663 94.6781 27.7947 94.7036 27.8302L94.993 28.186C94.8037 28.4263 94.5765 28.6354 94.32 28.8055C94.046 29.0076 93.7476 29.1758 93.4315 29.3064C93.085 29.4518 92.7241 29.5622 92.3547 29.6359C91.9562 29.7159 91.55 29.7534 91.1432 29.7479C90.4698 29.7602 89.8017 29.6299 89.1847 29.3657C88.5997 29.1152 88.0798 28.7391 87.6636 28.2651C87.2181 27.7411 86.882 27.1365 86.6742 26.4858C86.2097 24.9548 86.2097 23.3246 86.6742 21.7936C86.876 21.1364 87.2126 20.5264 87.6636 20.0011C88.095 19.4968 88.6383 19.0956 89.252 18.8281C89.932 18.5428 90.6659 18.4013 91.4057 18.4129C92.0734 18.4029 92.7366 18.5216 93.3575 18.7621C93.9063 18.9781 94.4086 19.2934 94.8382 19.6914L94.5555 20.067L94.4478 20.1593H94.4546ZM104.597 29.6029C104.5 29.6143 104.403 29.5884 104.325 29.5306C104.247 29.4728 104.195 29.3877 104.18 29.2932L104.025 27.8895C103.729 28.1729 103.419 28.4365 103.103 28.6869C102.806 28.9178 102.486 29.1187 102.147 29.2866C101.808 29.4524 101.448 29.5764 101.077 29.6556C100.664 29.7436 100.242 29.7856 99.8187 29.7809C99.4398 29.783 99.0629 29.7274 98.7015 29.6161C98.3496 29.5108 98.0225 29.3384 97.739 29.1087C97.4521 28.8654 97.2225 28.5641 97.066 28.2256C96.8893 27.8198 96.8043 27.3814 96.8169 26.9405C96.8066 26.4705 96.9479 26.0093 97.2208 25.6225C97.5476 25.1778 97.9825 24.8199 98.4861 24.5812C99.1893 24.2462 99.9369 24.0088 100.707 23.8761C101.784 23.6807 102.876 23.5771 103.971 23.5664V22.4329C104.025 21.5967 103.788 20.7673 103.298 20.0802C103.052 19.797 102.74 19.5749 102.389 19.4318C102.039 19.2886 101.658 19.2285 101.279 19.2564C100.821 19.2527 100.365 19.3285 99.9331 19.4805C99.5946 19.6072 99.2718 19.7708 98.9707 19.9681C98.7356 20.1161 98.5108 20.279 98.2976 20.4558C98.19 20.5753 98.0417 20.6526 97.8803 20.6733C97.8108 20.6753 97.7421 20.6578 97.6825 20.6227C97.6228 20.5877 97.5747 20.5366 97.5438 20.4756L97.3554 20.1593C97.886 19.6141 98.513 19.1675 99.2062 18.8412C99.894 18.5325 100.644 18.3794 101.4 18.3931C101.942 18.3842 102.479 18.4805 102.982 18.6765C103.417 18.8519 103.801 19.1304 104.099 19.4871C104.415 19.8586 104.644 20.2925 104.772 20.759C104.933 21.3005 105.01 21.8625 105.001 22.4263V29.6095L104.597 29.6029ZM103.978 24.2913C103.054 24.3105 102.132 24.3898 101.219 24.5285C100.564 24.6265 99.9241 24.8036 99.3139 25.0557C98.8829 25.2257 98.5014 25.4974 98.2034 25.8465C97.9725 26.1488 97.8495 26.517 97.8534 26.8944C97.8425 27.222 97.9045 27.5481 98.0351 27.8499C98.1493 28.1013 98.3168 28.3259 98.5265 28.509C98.7325 28.6864 98.9762 28.8169 99.2399 28.8912C99.5127 28.9724 99.7961 29.0145 100.081 29.0164C100.487 29.0163 100.891 28.9699 101.286 28.878C101.636 28.7858 101.975 28.6554 102.295 28.4892C102.609 28.3245 102.903 28.1255 103.17 27.8961C103.44 27.6654 103.709 27.4216 103.971 27.1514V24.2913H103.978ZM114.7 19.5464C114.698 19.573 114.691 19.5989 114.679 19.6228C114.666 19.6466 114.649 19.6677 114.629 19.685C114.608 19.7022 114.584 19.7152 114.558 19.7231C114.532 19.7309 114.505 19.7336 114.478 19.7309C114.411 19.7279 114.345 19.7146 114.282 19.6914C114.181 19.6526 114.078 19.6196 113.973 19.5925C113.823 19.5473 113.67 19.5121 113.515 19.4871C113.31 19.4573 113.103 19.444 112.896 19.4475C112.512 19.4344 112.13 19.4958 111.771 19.6281C111.411 19.7604 111.082 19.9611 110.803 20.2186C110.181 20.8493 109.72 21.6147 109.457 22.4526V29.6095H108.387V18.5974H108.999C109.097 18.5878 109.195 18.6136 109.275 18.6699C109.308 18.7055 109.333 18.7472 109.349 18.7924C109.365 18.8377 109.372 18.8856 109.369 18.9335L109.463 21.2598C109.75 20.4497 110.235 19.7209 110.877 19.1378C111.496 18.6243 112.287 18.3542 113.098 18.3799C113.413 18.3751 113.727 18.4106 114.033 18.4854C114.317 18.5529 114.59 18.6547 114.848 18.7885L114.706 19.52L114.7 19.5464ZM125.926 23.5795C125.896 23.609 125.86 23.6319 125.821 23.6466C125.782 23.6614 125.739 23.6677 125.697 23.6652H117.621V23.8761C117.611 24.6134 117.711 25.3481 117.917 26.0574C118.085 26.6315 118.369 27.167 118.751 27.6325C119.103 28.0483 119.55 28.3759 120.057 28.588C120.601 28.8094 121.185 28.9193 121.773 28.911C122.269 28.9191 122.763 28.857 123.241 28.7264C123.602 28.6253 123.951 28.4884 124.284 28.3178C124.518 28.1982 124.743 28.0616 124.957 27.9093C125.056 27.8184 125.18 27.7568 125.313 27.7313C125.358 27.728 125.402 27.7359 125.442 27.7544C125.482 27.7729 125.517 27.8013 125.542 27.8368L125.838 28.1926C125.633 28.4349 125.39 28.6439 125.118 28.8121C124.806 29.0093 124.475 29.1749 124.129 29.3064C123.748 29.4452 123.356 29.5553 122.958 29.6359C122.543 29.7145 122.122 29.7542 121.699 29.7545C120.979 29.7615 120.265 29.627 119.599 29.3591C118.975 29.1029 118.418 28.7107 117.971 28.2124C117.489 27.6825 117.125 27.061 116.9 26.3869C116.64 25.5794 116.515 24.7359 116.53 23.8893C116.519 23.1463 116.635 22.4068 116.874 21.7013C117.083 21.0673 117.42 20.4804 117.863 19.9747C118.303 19.489 118.844 19.1023 119.451 18.8412C120.128 18.5619 120.857 18.4228 121.592 18.4326C122.191 18.4269 122.785 18.5366 123.341 18.7556C123.872 18.9641 124.35 19.2834 124.741 19.6914C125.153 20.126 125.467 20.64 125.663 21.2005C125.899 21.8611 126.013 22.5572 126 23.2566C126.01 23.3713 125.984 23.4862 125.926 23.5861V23.5795ZM124.782 21.4048C124.643 20.9665 124.414 20.5606 124.109 20.212C123.81 19.8862 123.44 19.6315 123.025 19.4673C122.584 19.2877 122.11 19.198 121.632 19.2037C121.101 19.192 120.573 19.2815 120.077 19.4673C119.631 19.6368 119.228 19.8974 118.893 20.2317C118.549 20.5774 118.273 20.9817 118.078 21.4246C117.864 21.9226 117.726 22.4489 117.668 22.9864H125.071C125.076 22.4473 124.992 21.911 124.822 21.3982L124.782 21.4048Z" fill="#ED2729"/>
<path d="M38.2556 27.1909C38.2554 27.4568 38.2962 27.7212 38.3767 27.9751C38.4454 28.1746 38.558 28.3568 38.7065 28.5089C38.8419 28.6469 39.0077 28.7528 39.1911 28.8186C39.3853 28.8871 39.5905 28.9206 39.7969 28.9175C40.0263 28.9204 40.2544 28.8825 40.4699 28.8055C40.6477 28.7344 40.8188 28.6484 40.9814 28.5485C41.1024 28.4686 41.2192 28.3829 41.3314 28.2914C41.3858 28.2318 41.4594 28.1923 41.54 28.1794C41.5772 28.1826 41.6131 28.1945 41.6447 28.214C41.6763 28.2334 41.7027 28.26 41.7218 28.2914L42.0179 28.7527C41.7126 29.0739 41.3409 29.3278 40.9276 29.4974C40.5031 29.6803 40.0452 29.7767 39.5815 29.7808C39.2591 29.7993 38.9361 29.754 38.632 29.6476C38.3279 29.5412 38.0488 29.3758 37.8114 29.1613C37.3535 28.63 37.1286 27.9431 37.1855 27.2502V19.7243H35.5702C35.4969 19.7269 35.4252 19.7035 35.3682 19.6584C35.3405 19.6349 35.3188 19.6053 35.3048 19.5722C35.2907 19.539 35.2848 19.5031 35.2875 19.4672V19.0587L37.2057 18.9269L37.4749 14.9728C37.4805 14.9082 37.509 14.8475 37.5556 14.8014C37.58 14.7747 37.6102 14.7537 37.644 14.74C37.6778 14.7263 37.7143 14.7202 37.7508 14.7223H38.2556V18.94H41.7823V19.7243H38.2556V27.1975V27.1909ZM51.7164 29.6029C51.62 29.6111 51.524 29.5839 51.4469 29.5267C51.3698 29.4694 51.3171 29.3862 51.2991 29.2931L51.1443 27.8894C50.853 28.1725 50.5451 28.4387 50.2223 28.6868C49.9275 28.9177 49.6095 29.1186 49.2733 29.2866C48.9331 29.4513 48.5737 29.5752 48.2031 29.6556C47.7874 29.7432 47.363 29.7852 46.9378 29.7808C46.559 29.782 46.1822 29.7264 45.8206 29.6161C45.4707 29.5108 45.1458 29.3383 44.8649 29.1086C44.5758 28.8673 44.3458 28.5655 44.1918 28.2255C44.0099 27.8212 43.9225 27.3821 43.9361 26.9405C43.9323 26.4714 44.073 26.012 44.3399 25.6224C44.6667 25.1778 45.1016 24.8199 45.6052 24.5812C46.3084 24.2461 47.056 24.0088 47.8262 23.876C48.9126 23.6861 50.0138 23.5891 51.1174 23.5861V22.4328C51.1746 21.5963 50.937 20.7659 50.4444 20.0801C50.1984 19.7962 49.8871 19.5734 49.5361 19.4302C49.1851 19.287 48.8044 19.2274 48.4252 19.2564C47.9665 19.2516 47.5106 19.3275 47.0792 19.4804C46.7379 19.6057 46.4127 19.7694 46.11 19.9681C45.8736 20.1141 45.6486 20.2771 45.4369 20.4558C45.3293 20.5753 45.181 20.6525 45.0197 20.6732C44.95 20.6761 44.8809 20.6589 44.8211 20.6238C44.7613 20.5886 44.7133 20.5371 44.6831 20.4755L44.488 20.1592C45.0185 19.614 45.6456 19.1675 46.3388 18.8412C47.0289 18.5324 47.781 18.3792 48.5397 18.3931C49.0787 18.3836 49.6142 18.48 50.1146 18.6764C50.5508 18.8535 50.9365 19.1317 51.2386 19.487C51.5488 19.8618 51.7778 20.2946 51.9116 20.7589C52.0736 21.3027 52.1552 21.8664 52.1539 22.4328V29.6095L51.7164 29.6029ZM51.1174 24.2912C50.1933 24.3111 49.2715 24.3903 48.3579 24.5285C47.7036 24.6282 47.0641 24.8053 46.4532 25.0557C46.0242 25.2259 45.645 25.4976 45.3494 25.8465C45.1166 26.1481 44.9913 26.5162 44.9927 26.8943C44.9842 27.2225 45.0485 27.5485 45.1812 27.8499C45.2931 28.1025 45.4609 28.3276 45.6725 28.5089C45.8654 28.6833 46.0952 28.8138 46.3456 28.8911C46.6199 28.9755 46.906 29.0177 47.1936 29.0164C47.6081 29.0215 48.0217 28.9772 48.4252 28.8846C49.1229 28.7052 49.7681 28.369 50.3098 27.9026C50.579 27.672 50.8482 27.4281 51.1107 27.1579V24.2912H51.1174ZM58.7228 23.4147C58.6562 23.4768 58.5815 23.53 58.5007 23.5729C58.6123 23.6272 58.7145 23.6983 58.8035 23.7838L59.0593 24.0474L64.2619 29.6029H63.3264C63.2289 29.6034 63.1324 29.5832 63.0437 29.5436C62.9494 29.4926 62.8651 29.4257 62.7947 29.3459L58.0834 24.3901C57.9857 24.2787 57.8668 24.1869 57.7334 24.1199C57.574 24.0633 57.4047 24.0386 57.2354 24.0474H56.7306V29.6029H55.6604V13.5032H56.7306V23.3225H57.2488C57.3492 23.3205 57.4489 23.305 57.545 23.2763C57.6591 23.2385 57.7628 23.1754 57.8478 23.0918L62.3572 18.8741C62.4315 18.7957 62.5178 18.729 62.613 18.6764C62.7122 18.618 62.8272 18.5904 62.9427 18.5973H63.9052L58.9516 23.2104L58.743 23.4147H58.7228ZM74.5258 23.5729C74.4976 23.6047 74.4622 23.6295 74.4225 23.6456C74.3828 23.6616 74.3398 23.6683 74.2969 23.6652H66.2205V23.876C66.2088 24.6109 66.3063 25.3434 66.5099 26.0508C66.6769 26.6275 66.9607 27.1654 67.3444 27.6324C67.7077 28.0528 68.1695 28.3807 68.6905 28.588C69.2324 28.8069 69.8138 28.9167 70.4 28.9109C70.8956 28.9191 71.3898 28.8569 71.8673 28.7264C72.2291 28.6275 72.5788 28.4905 72.9105 28.3178C73.1434 28.1957 73.3682 28.0592 73.5835 27.9092C73.685 27.8161 73.8107 27.7522 73.947 27.7247C73.9906 27.7238 74.0337 27.7336 74.0725 27.7532C74.1113 27.7727 74.1445 27.8014 74.1691 27.8367L74.4652 28.1926C74.2578 28.4329 74.0151 28.6416 73.7451 28.8121C73.4353 29.011 73.1034 29.1746 72.7557 29.2997C72.3765 29.4446 71.9845 29.5549 71.5846 29.6292C71.1706 29.7136 70.7488 29.7556 70.326 29.7544C69.6061 29.7614 68.892 29.627 68.2261 29.359C67.6037 29.0987 67.0476 28.7072 66.5974 28.2124C66.1093 27.6828 65.7361 27.0618 65.5003 26.3869C65.2398 25.5817 65.1148 24.7403 65.1301 23.8958C65.1224 23.1531 65.2383 22.4141 65.4734 21.7079C65.6815 21.0732 66.018 20.486 66.4627 19.9813C66.9005 19.4935 67.4429 19.1065 68.0511 18.8478C68.7271 18.5653 69.4565 18.426 70.1914 18.4392C70.7902 18.4317 71.3847 18.5391 71.9413 18.7555C72.4652 18.9599 72.9381 19.2723 73.3278 19.6715C73.7369 20.1079 74.0506 20.6214 74.2498 21.1807C74.4835 21.8437 74.5951 22.5421 74.5796 23.2434C74.5913 23.3573 74.5679 23.4721 74.5123 23.5729H74.5258ZM73.3816 21.3982C73.2423 20.9619 73.0133 20.5582 72.7086 20.2119C72.4098 19.8877 72.0422 19.6313 71.6317 19.4607C71.1871 19.2842 70.7115 19.1946 70.2318 19.1971C69.7037 19.1918 69.1791 19.2812 68.6838 19.4607C68.2367 19.6316 67.831 19.892 67.4925 20.2251C67.1507 20.5733 66.877 20.9798 66.6848 21.4245C66.4713 21.9206 66.333 22.4445 66.2743 22.9798H73.6777C73.6856 22.4405 73.6015 21.9037 73.4287 21.3916L73.3816 21.3982ZM78.9073 22.7689C79.2242 22.9397 79.5579 23.0788 79.9034 23.1841L81.0475 23.54C81.4446 23.6586 81.8215 23.7904 82.1917 23.9354C82.5485 24.0721 82.8856 24.2538 83.1945 24.4757C83.4739 24.6867 83.7035 24.9542 83.8676 25.26C84.0575 25.6057 84.1504 25.9946 84.1368 26.3869C84.1426 26.8392 84.0533 27.2879 83.8743 27.7049C83.7003 28.1128 83.4386 28.4792 83.107 28.7791C82.7469 29.0964 82.3259 29.3406 81.8687 29.4974C81.3355 29.6835 80.7721 29.7728 80.2062 29.761C79.5143 29.7775 78.8264 29.6518 78.1871 29.392C77.6416 29.1539 77.1374 28.8337 76.693 28.443L76.9555 28.0674C76.9825 28.0132 77.0244 27.9676 77.0766 27.9356C77.1341 27.904 77.1992 27.8881 77.2651 27.8894C77.402 27.9107 77.529 27.9728 77.6285 28.0674C77.8032 28.2102 77.9901 28.3381 78.1871 28.4496C78.4575 28.6062 78.744 28.7343 79.0419 28.8318C79.4535 28.9572 79.8829 29.0173 80.3139 29.0098C80.7392 29.0156 81.1625 28.9509 81.5658 28.8186C81.8978 28.7003 82.2038 28.5214 82.4677 28.2914C82.7037 28.0705 82.8894 27.8032 83.0128 27.5072C83.1392 27.2085 83.2032 26.8881 83.2013 26.5648C83.215 26.237 83.1206 25.9135 82.9321 25.6422C82.7393 25.3908 82.4966 25.18 82.2186 25.0227C81.904 24.8439 81.5699 24.7003 81.2225 24.5944L80.0582 24.2385C79.6611 24.1199 79.2774 23.9881 78.9073 23.8497C78.5524 23.7189 78.2173 23.5416 77.9112 23.3225C77.6208 23.1119 77.3779 22.845 77.1978 22.5382C77.0085 22.1875 76.9158 21.7946 76.9285 21.3982C76.9274 21.0058 77.0172 20.6182 77.191 20.2647C77.366 19.9003 77.6184 19.5768 77.9314 19.3157C78.2736 19.0261 78.6686 18.8025 79.0957 18.6567C79.5932 18.4872 80.1171 18.4047 80.6437 18.4128C81.2646 18.4001 81.8827 18.4984 82.4677 18.7028C83.0085 18.9074 83.5043 19.2116 83.9282 19.5991L83.6926 19.9615C83.6715 20.0089 83.6366 20.0491 83.5924 20.0772C83.5481 20.1053 83.4963 20.1201 83.4436 20.1197C83.3252 20.1025 83.2137 20.0547 83.1205 19.9813C82.9548 19.8671 82.7817 19.7636 82.6023 19.6715C82.3508 19.5415 82.0871 19.4355 81.8148 19.3552C81.4419 19.257 81.0568 19.2104 80.6706 19.2168C80.293 19.2159 79.9178 19.276 79.5601 19.3948C79.2462 19.4917 78.9539 19.646 78.6986 19.8495C78.4708 20.0301 78.283 20.2543 78.1467 20.5085C78.0184 20.7579 77.9515 21.0332 77.9516 21.3125C77.9363 21.6201 78.0316 21.9232 78.2208 22.1692C78.4037 22.406 78.6324 22.6053 78.8938 22.7557L78.9073 22.7689Z" fill="#8C8281"/>
<path fill-rule="evenodd" clip-rule="evenodd" d="M20.4671 30.341C20.6219 29.3393 20.9181 27.5006 21.2613 25.9651C21.4517 25.1678 21.6968 24.384 21.9949 23.619C22.8107 23.6112 23.5899 23.2863 24.161 22.716C24.7321 22.1456 25.0485 21.3764 25.0405 20.5777C25.0324 19.7789 24.7007 19.016 24.1182 18.4568C23.5357 17.8975 22.7501 17.5878 21.9344 17.5956H21.7998V17.6747C21.8002 18.5448 21.5472 19.397 21.0703 20.1313C20.5934 20.8655 19.9126 21.4513 19.1076 21.8199C19.2942 22.233 19.572 22.6004 19.9212 22.8956C20.2704 23.1907 20.6821 23.4063 21.1267 23.5268C20.9248 24.4494 20.6623 25.7015 20.5075 26.6637C20.2383 28.3639 20.0633 29.8731 19.996 30.4596C19.2238 30.6699 18.4363 30.8219 17.6404 30.9143C17.2017 29.0526 16.8959 27.1633 16.725 25.26C16.6556 24.0342 16.6781 22.8052 16.7923 21.5827H17.1087C18.1391 21.5879 19.1344 21.216 19.8994 20.5399C20.6643 19.8638 21.1436 18.9323 21.2433 17.928C21.3431 16.9237 21.056 15.9192 20.4384 15.1115C19.8209 14.3037 18.9174 13.751 17.9052 13.5618C16.893 13.3726 15.8451 13.5605 14.9671 14.0887C14.0891 14.6169 13.4442 15.4472 13.1591 16.4168C12.874 17.3864 12.9691 18.4254 13.4259 19.3298C13.8826 20.2343 14.668 20.9391 15.628 21.3059C15.7761 22.7294 16.0251 24.9107 16.2001 26.1035C16.5299 28.2585 17.0144 30.2092 17.2029 30.9275C16.7452 30.967 16.2808 30.9868 15.803 30.9868C11.8107 30.9644 7.97462 29.4651 5.06389 26.7895C2.15315 24.114 0.382921 20.46 0.108112 16.5601C-0.166697 12.6602 1.07423 8.8028 3.5821 5.76118C6.08997 2.71956 9.67939 0.718611 13.6307 0.159514C17.582 -0.399584 21.6031 0.524498 24.8878 2.74649C28.1725 4.96848 30.478 8.32412 31.342 12.1406C32.206 15.9571 31.5647 19.9524 29.5466 23.3253C27.5285 26.6983 24.2829 29.1996 20.4604 30.3278L20.4671 30.341Z" fill="#ED2729"/>
</g>
<path d="M3.5 48.9141C3.5 48.3672 3.63216 47.8704 3.89648 47.4238C4.16081 46.9772 4.51628 46.6217 4.96289 46.3574C5.41406 46.0931 5.91081 45.9609 6.45312 45.9609C6.92708 45.9609 7.3623 46.0635 7.75879 46.2686C8.15983 46.4691 8.49023 46.7425 8.75 47.0889C9.01432 47.4352 9.17839 47.8294 9.24219 48.2715H8.03906C7.9707 47.9342 7.78385 47.6562 7.47852 47.4375C7.17773 47.2188 6.83594 47.1094 6.45312 47.1094C6.125 47.1094 5.82422 47.1914 5.55078 47.3555C5.27734 47.515 5.05859 47.7314 4.89453 48.0049C4.73047 48.2783 4.64844 48.5814 4.64844 48.9141C4.64844 49.2422 4.73047 49.543 4.89453 49.8164C5.05859 50.0853 5.27734 50.3018 5.55078 50.4658C5.82422 50.6253 6.125 50.7051 6.45312 50.7051C6.83594 50.7051 7.15951 50.598 7.42383 50.3838C7.69271 50.165 7.86133 49.8848 7.92969 49.543H9.13281C9.07357 49.985 8.9209 50.3815 8.6748 50.7324C8.42871 51.0833 8.11426 51.3613 7.73145 51.5664C7.35319 51.7669 6.92708 51.8672 6.45312 51.8672C5.91081 51.8672 5.41406 51.735 4.96289 51.4707C4.51628 51.2018 4.16081 50.8441 3.89648 50.3975C3.63216 49.9508 3.5 49.4564 3.5 48.9141ZM6.39844 54.1572C5.67383 54.1572 4.99479 54.0228 4.36133 53.7539C3.72786 53.4805 3.1696 53.1022 2.68652 52.6191C2.20345 52.1361 1.8252 51.5778 1.55176 50.9443C1.28288 50.3109 1.14844 49.6318 1.14844 48.9072C1.14844 48.1826 1.28288 47.5036 1.55176 46.8701C1.8252 46.2367 2.20345 45.6784 2.68652 45.1953C3.1696 44.7122 3.72786 44.3363 4.36133 44.0674C4.99479 43.7939 5.67383 43.6572 6.39844 43.6572C7.12305 43.6572 7.80208 43.7939 8.43555 44.0674C9.06901 44.3363 9.62728 44.7122 10.1104 45.1953C10.5934 45.6784 10.9694 46.2367 11.2383 46.8701C11.5117 47.5036 11.6484 48.1826 11.6484 48.9072C11.6484 49.6318 11.5117 50.3109 11.2383 50.9443C10.9694 51.5778 10.5934 52.1361 10.1104 52.6191C9.62728 53.1022 9.06901 53.4805 8.43555 53.7539C7.80208 54.0228 7.12305 54.1572 6.39844 54.1572ZM6.39844 52.9678C6.95898 52.9678 7.48307 52.863 7.9707 52.6533C8.46289 52.4437 8.89583 52.152 9.26953 51.7783C9.64323 51.4046 9.9349 50.974 10.1445 50.4863C10.3542 49.9941 10.459 49.4678 10.459 48.9072C10.459 48.3467 10.3542 47.8226 10.1445 47.335C9.9349 46.8428 9.64323 46.4098 9.26953 46.0361C8.89583 45.6624 8.46289 45.3708 7.9707 45.1611C7.48307 44.9515 6.95898 44.8467 6.39844 44.8467C5.83789 44.8467 5.31152 44.9515 4.81934 45.1611C4.33171 45.3708 3.90104 45.6624 3.52734 46.0361C3.15365 46.4098 2.86198 46.8428 2.65234 47.335C2.44271 47.8226 2.33789 48.3467 2.33789 48.9072C2.33789 49.4678 2.44271 49.9941 2.65234 50.4863C2.86198 50.974 3.15365 51.4046 3.52734 51.7783C3.90104 52.152 4.33171 52.4437 4.81934 52.6533C5.31152 52.863 5.83789 52.9678 6.39844 52.9678ZM19.5303 54L17.2129 46.3574H18.5186L19.4482 49.6934C19.5758 50.1491 19.7126 50.6663 19.8584 51.2451C20.0042 51.8193 20.1478 52.471 20.2891 53.2002H20.0771C20.2139 52.5029 20.3529 51.8649 20.4941 51.2861C20.6354 50.7074 20.7721 50.1764 20.9043 49.6934L21.8203 46.3574H23.1328L24.0352 49.6934C24.1628 50.1628 24.2949 50.6868 24.4316 51.2656C24.5729 51.8398 24.7119 52.4847 24.8486 53.2002H24.6299C24.7757 52.4938 24.9193 51.8535 25.0605 51.2793C25.2064 50.7005 25.3454 50.1719 25.4775 49.6934L26.4072 46.3574H27.7129L25.3955 54H24.1719L23.1807 50.541C23.0804 50.1901 22.9824 49.8324 22.8867 49.4678C22.791 49.1032 22.6976 48.7295 22.6064 48.3467C22.5153 47.9639 22.4219 47.5742 22.3262 47.1777H22.5996C22.5085 47.5697 22.415 47.9593 22.3193 48.3467C22.2282 48.7295 22.1348 49.1055 22.0391 49.4746C21.9434 49.8438 21.8454 50.1992 21.7451 50.541L20.7539 54H19.5303ZM30.9873 54L28.6699 46.3574H29.9756L30.9053 49.6934C31.0329 50.1491 31.1696 50.6663 31.3154 51.2451C31.4613 51.8193 31.6048 52.471 31.7461 53.2002H31.5342C31.6709 52.5029 31.8099 51.8649 31.9512 51.2861C32.0924 50.7074 32.2292 50.1764 32.3613 49.6934L33.2773 46.3574H34.5898L35.4922 49.6934C35.6198 50.1628 35.752 50.6868 35.8887 51.2656C36.0299 51.8398 36.1689 52.4847 36.3057 53.2002H36.0869C36.2327 52.4938 36.3763 51.8535 36.5176 51.2793C36.6634 50.7005 36.8024 50.1719 36.9346 49.6934L37.8643 46.3574H39.1699L36.8525 54H35.6289L34.6377 50.541C34.5374 50.1901 34.4395 49.8324 34.3438 49.4678C34.248 49.1032 34.1546 48.7295 34.0635 48.3467C33.9723 47.9639 33.8789 47.5742 33.7832 47.1777H34.0566C33.9655 47.5697 33.8721 47.9593 33.7764 48.3467C33.6852 48.7295 33.5918 49.1055 33.4961 49.4746C33.4004 49.8438 33.3024 50.1992 33.2021 50.541L32.2109 54H30.9873ZM42.4443 54L40.127 46.3574H41.4326L42.3623 49.6934C42.4899 50.1491 42.6266 50.6663 42.7725 51.2451C42.9183 51.8193 43.0618 52.471 43.2031 53.2002H42.9912C43.1279 52.5029 43.2669 51.8649 43.4082 51.2861C43.5495 50.7074 43.6862 50.1764 43.8184 49.6934L44.7344 46.3574H46.0469L46.9492 49.6934C47.0768 50.1628 47.209 50.6868 47.3457 51.2656C47.487 51.8398 47.626 52.4847 47.7627 53.2002H47.5439C47.6898 52.4938 47.8333 51.8535 47.9746 51.2793C48.1204 50.7005 48.2594 50.1719 48.3916 49.6934L49.3213 46.3574H50.627L48.3096 54H47.0859L46.0947 50.541C45.9945 50.1901 45.8965 49.8324 45.8008 49.4678C45.7051 49.1032 45.6117 48.7295 45.5205 48.3467C45.4294 47.9639 45.3359 47.5742 45.2402 47.1777H45.5137C45.4225 47.5697 45.3291 47.9593 45.2334 48.3467C45.1423 48.7295 45.0488 49.1055 44.9531 49.4746C44.8574 49.8438 44.7594 50.1992 44.6592 50.541L43.668 54H42.4443ZM52.083 54.0889C51.8278 54.0889 51.609 54 51.4268 53.8223C51.249 53.64 51.1602 53.4212 51.1602 53.166C51.1602 52.9108 51.249 52.6943 51.4268 52.5166C51.609 52.3343 51.8278 52.2432 52.083 52.2432C52.3382 52.2432 52.5547 52.3343 52.7324 52.5166C52.9147 52.6943 53.0059 52.9108 53.0059 53.166C53.0059 53.4212 52.9147 53.64 52.7324 53.8223C52.5547 54 52.3382 54.0889 52.083 54.0889ZM58.1875 46.3574V47.4102H54.2363V46.3574H58.1875ZM55.3848 44.5391H56.6152V52.0176C56.6152 52.3594 56.6836 52.61 56.8203 52.7695C56.9616 52.9245 57.194 53.002 57.5176 53.002C57.5951 53.002 57.693 52.9928 57.8115 52.9746C57.9346 52.9564 58.0462 52.9382 58.1465 52.9199L58.3994 53.959C58.2718 54.0046 58.126 54.0387 57.9619 54.0615C57.8024 54.0843 57.6429 54.0957 57.4834 54.0957C56.8226 54.0957 56.3076 53.9225 55.9385 53.5762C55.5693 53.2253 55.3848 52.7376 55.3848 52.1133V44.5391ZM61.9678 54.1777C61.4847 54.1777 61.0449 54.0866 60.6484 53.9043C60.2565 53.722 59.9443 53.4554 59.7119 53.1045C59.4795 52.7536 59.3633 52.3275 59.3633 51.8262C59.3633 51.3887 59.4499 51.0332 59.623 50.7598C59.7962 50.4863 60.0264 50.2721 60.3135 50.1172C60.6051 49.9577 60.9264 49.8392 61.2773 49.7617C61.6283 49.6842 61.9814 49.6227 62.3369 49.5771C62.7926 49.5179 63.1641 49.4723 63.4512 49.4404C63.7383 49.4085 63.9502 49.3538 64.0869 49.2764C64.2282 49.1989 64.2988 49.0667 64.2988 48.8799V48.8389C64.2988 48.5199 64.2396 48.251 64.1211 48.0322C64.0026 47.8089 63.8249 47.638 63.5879 47.5195C63.3509 47.401 63.0547 47.3418 62.6992 47.3418C62.3346 47.3418 62.0225 47.3988 61.7627 47.5127C61.5029 47.6266 61.291 47.7702 61.127 47.9434C60.9674 48.112 60.8467 48.2852 60.7646 48.4629L59.582 48.0732C59.778 47.6084 60.0423 47.2461 60.375 46.9863C60.7077 46.722 61.0745 46.5352 61.4756 46.4258C61.8766 46.3164 62.2731 46.2617 62.665 46.2617C62.9202 46.2617 63.2096 46.2936 63.5332 46.3574C63.8613 46.4167 64.1758 46.5374 64.4766 46.7197C64.7819 46.902 65.0326 47.1732 65.2285 47.5332C65.429 47.8887 65.5293 48.3649 65.5293 48.9619V54H64.3193V52.9609H64.2373C64.1507 53.1387 64.0117 53.3232 63.8203 53.5146C63.6289 53.7015 63.3805 53.8587 63.0752 53.9863C62.7699 54.1139 62.4007 54.1777 61.9678 54.1777ZM62.1797 53.0908C62.6354 53.0908 63.0205 53.002 63.335 52.8242C63.6494 52.6465 63.8887 52.4163 64.0527 52.1338C64.2168 51.8467 64.2988 51.5482 64.2988 51.2383V50.1787C64.2487 50.238 64.1393 50.2926 63.9707 50.3428C63.8021 50.3883 63.6084 50.4294 63.3896 50.4658C63.1755 50.5023 62.9658 50.5342 62.7607 50.5615C62.5602 50.5843 62.4007 50.6025 62.2822 50.6162C61.986 50.6527 61.708 50.7165 61.4482 50.8076C61.193 50.8942 60.988 51.0241 60.833 51.1973C60.6781 51.3659 60.6006 51.596 60.6006 51.8877C60.6006 52.152 60.6689 52.373 60.8057 52.5508C60.9424 52.7285 61.1292 52.863 61.3662 52.9541C61.6032 53.0452 61.8743 53.0908 62.1797 53.0908ZM68.8447 51.252V49.7275H69.0703L72.3379 46.3574H73.8623L70.3281 49.9873H70.1914L68.8447 51.252ZM67.6895 54V43.8145H68.9199V54H67.6895ZM72.5225 54L69.5967 50.2607L70.4717 49.3926L74.1016 54H72.5225ZM78.2715 54.1641C77.5332 54.1641 76.8952 54 76.3574 53.6719C75.8242 53.3438 75.4118 52.8857 75.1201 52.2979C74.833 51.71 74.6895 51.0241 74.6895 50.2402C74.6895 49.4564 74.8307 48.766 75.1133 48.1689C75.3958 47.5719 75.7946 47.1048 76.3096 46.7676C76.8291 46.4303 77.4352 46.2617 78.1279 46.2617C78.5335 46.2617 78.9323 46.3301 79.3242 46.4668C79.7207 46.599 80.0785 46.8154 80.3975 47.1162C80.721 47.4124 80.9785 47.8044 81.1699 48.292C81.3613 48.7796 81.457 49.3766 81.457 50.083V50.5957H75.5234V49.5566H80.7939L80.2197 49.9395C80.2197 49.4382 80.14 48.9938 79.9805 48.6064C79.8255 48.2145 79.5931 47.9092 79.2832 47.6904C78.9733 47.4671 78.5882 47.3555 78.1279 47.3555C77.6676 47.3555 77.2734 47.4694 76.9453 47.6973C76.6172 47.9206 76.3665 48.2145 76.1934 48.5791C76.0202 48.9391 75.9336 49.3265 75.9336 49.7412V50.4316C75.9336 50.9967 76.0316 51.4775 76.2275 51.874C76.4235 52.266 76.6969 52.5645 77.0479 52.7695C77.4033 52.9701 77.8135 53.0703 78.2783 53.0703C78.5791 53.0703 78.8525 53.027 79.0986 52.9404C79.3447 52.8538 79.5566 52.724 79.7344 52.5508C79.9121 52.373 80.0488 52.1543 80.1445 51.8945L81.334 52.2227C81.2155 52.6055 81.015 52.9427 80.7324 53.2344C80.4499 53.526 80.099 53.7539 79.6797 53.918C79.265 54.082 78.7956 54.1641 78.2715 54.1641ZM85.8184 54.1641C85.2943 54.1641 84.8271 54.0889 84.417 53.9385C84.0114 53.7835 83.6764 53.5557 83.4121 53.2549C83.1478 52.9541 82.9701 52.585 82.8789 52.1475L84.0479 51.8672C84.1572 52.2865 84.3623 52.5941 84.6631 52.79C84.9684 52.986 85.349 53.084 85.8047 53.084C86.3379 53.084 86.7617 52.9701 87.0762 52.7422C87.3952 52.5143 87.5547 52.2432 87.5547 51.9287C87.5547 51.6644 87.4613 51.4456 87.2744 51.2725C87.0921 51.0947 86.8118 50.9626 86.4336 50.876L85.1621 50.5752C84.4694 50.4111 83.9544 50.1582 83.6172 49.8164C83.2799 49.4701 83.1113 49.028 83.1113 48.4902C83.1113 48.0527 83.2344 47.6676 83.4805 47.335C83.7266 46.9977 84.0615 46.7357 84.4854 46.5488C84.9137 46.3574 85.3991 46.2617 85.9414 46.2617C86.4655 46.2617 86.9098 46.3415 87.2744 46.501C87.6436 46.6559 87.9421 46.8724 88.1699 47.1504C88.4023 47.4238 88.5755 47.7406 88.6895 48.1006L87.5752 48.3877C87.4704 48.1143 87.2949 47.8659 87.0488 47.6426C86.8073 47.4193 86.4404 47.3076 85.9482 47.3076C85.4925 47.3076 85.112 47.4124 84.8066 47.6221C84.5059 47.8317 84.3555 48.096 84.3555 48.415C84.3555 48.6976 84.458 48.9255 84.6631 49.0986C84.8682 49.2673 85.194 49.404 85.6406 49.5088L86.7959 49.7822C87.4886 49.9463 88.0013 50.2015 88.334 50.5479C88.6667 50.8896 88.833 51.3226 88.833 51.8467C88.833 52.2933 88.7054 52.6921 88.4502 53.043C88.1995 53.3893 87.8464 53.6628 87.3906 53.8633C86.9395 54.0638 86.4154 54.1641 85.8184 54.1641ZM94.9922 49.085V50.2197H90.5215V49.085H94.9922ZM100.167 54.1641C99.4743 54.1641 98.8659 54 98.3418 53.6719C97.8223 53.3438 97.4167 52.8835 97.125 52.291C96.8333 51.6986 96.6875 51.0104 96.6875 50.2266C96.6875 49.429 96.8333 48.734 97.125 48.1416C97.4167 47.5446 97.8223 47.082 98.3418 46.7539C98.8659 46.4258 99.4743 46.2617 100.167 46.2617C100.536 46.2617 100.885 46.3096 101.213 46.4053C101.541 46.501 101.84 46.64 102.108 46.8223C102.382 47 102.617 47.221 102.812 47.4854C103.008 47.7451 103.159 48.0413 103.264 48.374L102.081 48.709C102.026 48.513 101.942 48.333 101.828 48.1689C101.714 48.0049 101.575 47.8636 101.411 47.7451C101.252 47.6221 101.067 47.5286 100.857 47.4648C100.648 47.3965 100.418 47.3623 100.167 47.3623C99.6566 47.3623 99.2373 47.4967 98.9092 47.7656C98.5811 48.0299 98.3372 48.3786 98.1777 48.8115C98.0182 49.2445 97.9385 49.7161 97.9385 50.2266C97.9385 50.7279 98.0182 51.195 98.1777 51.6279C98.3372 52.0563 98.5811 52.4027 98.9092 52.667C99.2373 52.9313 99.6566 53.0635 100.167 53.0635C100.422 53.0635 100.657 53.0293 100.871 52.9609C101.085 52.8926 101.274 52.7969 101.438 52.6738C101.607 52.5462 101.748 52.3958 101.862 52.2227C101.976 52.0495 102.061 51.8604 102.115 51.6553L103.291 51.9902C103.191 52.332 103.04 52.6374 102.84 52.9062C102.644 53.1706 102.409 53.3984 102.136 53.5898C101.862 53.7767 101.559 53.918 101.227 54.0137C100.894 54.1139 100.541 54.1641 100.167 54.1641ZM107.331 54.1777C106.848 54.1777 106.408 54.0866 106.012 53.9043C105.62 53.722 105.308 53.4554 105.075 53.1045C104.843 52.7536 104.727 52.3275 104.727 51.8262C104.727 51.3887 104.813 51.0332 104.986 50.7598C105.16 50.4863 105.39 50.2721 105.677 50.1172C105.968 49.9577 106.29 49.8392 106.641 49.7617C106.992 49.6842 107.345 49.6227 107.7 49.5771C108.156 49.5179 108.527 49.4723 108.814 49.4404C109.102 49.4085 109.313 49.3538 109.45 49.2764C109.591 49.1989 109.662 49.0667 109.662 48.8799V48.8389C109.662 48.5199 109.603 48.251 109.484 48.0322C109.366 47.8089 109.188 47.638 108.951 47.5195C108.714 47.401 108.418 47.3418 108.062 47.3418C107.698 47.3418 107.386 47.3988 107.126 47.5127C106.866 47.6266 106.654 47.7702 106.49 47.9434C106.331 48.112 106.21 48.2852 106.128 48.4629L104.945 48.0732C105.141 47.6084 105.406 47.2461 105.738 46.9863C106.071 46.722 106.438 46.5352 106.839 46.4258C107.24 46.3164 107.636 46.2617 108.028 46.2617C108.284 46.2617 108.573 46.2936 108.896 46.3574C109.225 46.4167 109.539 46.5374 109.84 46.7197C110.145 46.902 110.396 47.1732 110.592 47.5332C110.792 47.8887 110.893 48.3649 110.893 48.9619V54H109.683V52.9609H109.601C109.514 53.1387 109.375 53.3232 109.184 53.5146C108.992 53.7015 108.744 53.8587 108.438 53.9863C108.133 54.1139 107.764 54.1777 107.331 54.1777ZM107.543 53.0908C107.999 53.0908 108.384 53.002 108.698 52.8242C109.013 52.6465 109.252 52.4163 109.416 52.1338C109.58 51.8467 109.662 51.5482 109.662 51.2383V50.1787C109.612 50.238 109.503 50.2926 109.334 50.3428C109.165 50.3883 108.972 50.4294 108.753 50.4658C108.539 50.5023 108.329 50.5342 108.124 50.5615C107.924 50.5843 107.764 50.6025 107.646 50.6162C107.349 50.6527 107.071 50.7165 106.812 50.8076C106.556 50.8942 106.351 51.0241 106.196 51.1973C106.041 51.3659 105.964 51.596 105.964 51.8877C105.964 52.152 106.032 52.373 106.169 52.5508C106.306 52.7285 106.493 52.863 106.729 52.9541C106.966 53.0452 107.238 53.0908 107.543 53.0908ZM113.053 54V46.3574H114.242V47.5332H114.324C114.465 47.1458 114.716 46.8359 115.076 46.6035C115.441 46.3665 115.851 46.248 116.307 46.248C116.398 46.248 116.505 46.2503 116.628 46.2549C116.756 46.2594 116.856 46.264 116.929 46.2686V47.5059C116.892 47.4967 116.801 47.4831 116.655 47.4648C116.509 47.4466 116.354 47.4375 116.19 47.4375C115.826 47.4375 115.498 47.515 115.206 47.6699C114.919 47.8203 114.693 48.0299 114.529 48.2988C114.365 48.5632 114.283 48.8685 114.283 49.2148V54H113.053ZM121.311 54.1641C120.572 54.1641 119.934 54 119.396 53.6719C118.863 53.3438 118.451 52.8857 118.159 52.2979C117.872 51.71 117.729 51.0241 117.729 50.2402C117.729 49.4564 117.87 48.766 118.152 48.1689C118.435 47.5719 118.834 47.1048 119.349 46.7676C119.868 46.4303 120.474 46.2617 121.167 46.2617C121.573 46.2617 121.971 46.3301 122.363 46.4668C122.76 46.599 123.118 46.8154 123.437 47.1162C123.76 47.4124 124.018 47.8044 124.209 48.292C124.4 48.7796 124.496 49.3766 124.496 50.083V50.5957H118.562V49.5566H123.833L123.259 49.9395C123.259 49.4382 123.179 48.9938 123.02 48.6064C122.865 48.2145 122.632 47.9092 122.322 47.6904C122.012 47.4671 121.627 47.3555 121.167 47.3555C120.707 47.3555 120.312 47.4694 119.984 47.6973C119.656 47.9206 119.406 48.2145 119.232 48.5791C119.059 48.9391 118.973 49.3265 118.973 49.7412V50.4316C118.973 50.9967 119.071 51.4775 119.267 51.874C119.463 52.266 119.736 52.5645 120.087 52.7695C120.442 52.9701 120.853 53.0703 121.317 53.0703C121.618 53.0703 121.892 53.027 122.138 52.9404C122.384 52.8538 122.596 52.724 122.773 52.5508C122.951 52.373 123.088 52.1543 123.184 51.8945L124.373 52.2227C124.255 52.6055 124.054 52.9427 123.771 53.2344C123.489 53.526 123.138 53.7539 122.719 53.918C122.304 54.082 121.835 54.1641 121.311 54.1641ZM127.196 54.0889C126.941 54.0889 126.722 54 126.54 53.8223C126.362 53.64 126.273 53.4212 126.273 53.166C126.273 52.9108 126.362 52.6943 126.54 52.5166C126.722 52.3343 126.941 52.2432 127.196 52.2432C127.451 52.2432 127.668 52.3343 127.846 52.5166C128.028 52.6943 128.119 52.9108 128.119 53.166C128.119 53.4212 128.028 53.64 127.846 53.8223C127.668 54 127.451 54.0889 127.196 54.0889ZM133.403 54.1641C132.711 54.1641 132.102 54 131.578 53.6719C131.059 53.3438 130.653 52.8835 130.361 52.291C130.07 51.6986 129.924 51.0104 129.924 50.2266C129.924 49.429 130.07 48.734 130.361 48.1416C130.653 47.5446 131.059 47.082 131.578 46.7539C132.102 46.4258 132.711 46.2617 133.403 46.2617C133.772 46.2617 134.121 46.3096 134.449 46.4053C134.777 46.501 135.076 46.64 135.345 46.8223C135.618 47 135.853 47.221 136.049 47.4854C136.245 47.7451 136.395 48.0413 136.5 48.374L135.317 48.709C135.263 48.513 135.178 48.333 135.064 48.1689C134.951 48.0049 134.812 47.8636 134.647 47.7451C134.488 47.6221 134.303 47.5286 134.094 47.4648C133.884 47.3965 133.654 47.3623 133.403 47.3623C132.893 47.3623 132.474 47.4967 132.146 47.7656C131.817 48.0299 131.574 48.3786 131.414 48.8115C131.255 49.2445 131.175 49.7161 131.175 50.2266C131.175 50.7279 131.255 51.195 131.414 51.6279C131.574 52.0563 131.817 52.4027 132.146 52.667C132.474 52.9313 132.893 53.0635 133.403 53.0635C133.659 53.0635 133.893 53.0293 134.107 52.9609C134.322 52.8926 134.511 52.7969 134.675 52.6738C134.843 52.5462 134.985 52.3958 135.099 52.2227C135.213 52.0495 135.297 51.8604 135.352 51.6553L136.527 51.9902C136.427 52.332 136.277 52.6374 136.076 52.9062C135.88 53.1706 135.646 53.3984 135.372 53.5898C135.099 53.7767 134.796 53.918 134.463 54.0137C134.13 54.1139 133.777 54.1641 133.403 54.1641ZM141.401 54.1641C140.709 54.1641 140.1 54 139.576 53.6719C139.057 53.3438 138.651 52.8835 138.359 52.291C138.068 51.6986 137.922 51.0104 137.922 50.2266C137.922 49.429 138.068 48.734 138.359 48.1416C138.651 47.5446 139.057 47.082 139.576 46.7539C140.1 46.4258 140.709 46.2617 141.401 46.2617C142.099 46.2617 142.709 46.4258 143.233 46.7539C143.757 47.082 144.165 47.5446 144.457 48.1416C144.749 48.734 144.895 49.429 144.895 50.2266C144.895 51.0104 144.749 51.6986 144.457 52.291C144.165 52.8835 143.757 53.3438 143.233 53.6719C142.709 54 142.099 54.1641 141.401 54.1641ZM141.401 53.0635C141.916 53.0635 142.34 52.9313 142.673 52.667C143.006 52.4027 143.252 52.0563 143.411 51.6279C143.571 51.195 143.65 50.7279 143.65 50.2266C143.65 49.7207 143.571 49.2513 143.411 48.8184C143.252 48.3809 143.006 48.0299 142.673 47.7656C142.34 47.4967 141.916 47.3623 141.401 47.3623C140.891 47.3623 140.472 47.4967 140.144 47.7656C139.815 48.0299 139.572 48.3786 139.412 48.8115C139.253 49.2445 139.173 49.7161 139.173 50.2266C139.173 50.7279 139.253 51.195 139.412 51.6279C139.572 52.0563 139.815 52.4027 140.144 52.667C140.472 52.9313 140.891 53.0635 141.401 53.0635ZM146.686 54V46.3574H147.882L147.889 48.0664H147.793C147.898 47.6517 148.062 47.3099 148.285 47.041C148.513 46.7676 148.777 46.5625 149.078 46.4258C149.383 46.2891 149.7 46.2207 150.028 46.2207C150.584 46.2207 151.033 46.3916 151.375 46.7334C151.721 47.0752 151.945 47.5241 152.045 48.0801H151.881C151.972 47.6973 152.138 47.3669 152.38 47.0889C152.621 46.8109 152.913 46.5967 153.255 46.4463C153.601 46.2959 153.977 46.2207 154.383 46.2207C154.825 46.2207 155.228 46.3164 155.593 46.5078C155.957 46.6992 156.247 46.9886 156.461 47.376C156.68 47.7633 156.789 48.2533 156.789 48.8457V54H155.552V48.8799C155.552 48.3285 155.397 47.9342 155.087 47.6973C154.782 47.4603 154.424 47.3418 154.014 47.3418C153.672 47.3418 153.376 47.4147 153.125 47.5605C152.879 47.7018 152.688 47.8978 152.551 48.1484C152.419 48.3991 152.353 48.6862 152.353 49.0098V54H151.122V48.7568C151.122 48.333 150.981 47.9912 150.698 47.7314C150.416 47.4717 150.058 47.3418 149.625 47.3418C149.329 47.3418 149.049 47.4124 148.784 47.5537C148.524 47.6904 148.315 47.8955 148.155 48.1689C147.996 48.4424 147.916 48.7819 147.916 49.1875V54H146.686ZM162.859 54V53.0635L166.243 49.3926C166.621 48.9824 166.936 48.6224 167.187 48.3125C167.437 48.0026 167.626 47.7087 167.754 47.4307C167.882 47.1481 167.945 46.8496 167.945 46.5352C167.945 46.1797 167.861 45.8721 167.692 45.6123C167.524 45.3525 167.296 45.1543 167.009 45.0176C166.722 44.8763 166.396 44.8057 166.031 44.8057C165.644 44.8057 165.307 44.8854 165.02 45.0449C164.737 45.1999 164.518 45.4209 164.363 45.708C164.208 45.9906 164.131 46.3232 164.131 46.7061H162.887C162.887 46.1045 163.026 45.5758 163.304 45.1201C163.582 44.6644 163.96 44.3112 164.438 44.0605C164.917 43.8053 165.459 43.6777 166.065 43.6777C166.672 43.6777 167.207 43.8053 167.672 44.0605C168.141 44.3112 168.508 44.6507 168.772 45.0791C169.041 45.5075 169.176 45.9883 169.176 46.5215C169.176 46.8906 169.11 47.2507 168.978 47.6016C168.845 47.9479 168.613 48.3421 168.28 48.7842C167.948 49.2262 167.48 49.7663 166.879 50.4043L164.65 52.7764V52.8584H169.347V54H162.859ZM174.768 54.1367C174.011 54.1367 173.366 53.9316 172.833 53.5215C172.3 53.1113 171.892 52.5189 171.609 51.7441C171.327 50.9648 171.186 50.0215 171.186 48.9141C171.186 47.8112 171.327 46.8701 171.609 46.0908C171.896 45.3115 172.307 44.7145 172.84 44.2998C173.373 43.8851 174.016 43.6777 174.768 43.6777C175.52 43.6777 176.162 43.8851 176.695 44.2998C177.233 44.7145 177.643 45.3115 177.926 46.0908C178.208 46.8701 178.35 47.8112 178.35 48.9141C178.35 50.0169 178.208 50.958 177.926 51.7373C177.648 52.5166 177.242 53.1113 176.709 53.5215C176.176 53.9316 175.529 54.1367 174.768 54.1367ZM174.768 53.002C175.264 53.002 175.686 52.8402 176.032 52.5166C176.379 52.193 176.643 51.7282 176.825 51.1221C177.007 50.5114 177.099 49.7754 177.099 48.9141C177.099 48.0482 177.007 47.3099 176.825 46.6992C176.643 46.084 176.379 45.6146 176.032 45.291C175.686 44.9674 175.264 44.8057 174.768 44.8057C174.271 44.8057 173.849 44.9697 173.503 45.2979C173.157 45.6214 172.892 46.0885 172.71 46.6992C172.528 47.3099 172.437 48.0482 172.437 48.9141C172.437 49.7754 172.528 50.5114 172.71 51.1221C172.892 51.7282 173.157 52.193 173.503 52.5166C173.849 52.8402 174.271 53.002 174.768 53.002ZM180.236 54V53.0635L183.62 49.3926C183.998 48.9824 184.313 48.6224 184.563 48.3125C184.814 48.0026 185.003 47.7087 185.131 47.4307C185.258 47.1481 185.322 46.8496 185.322 46.5352C185.322 46.1797 185.238 45.8721 185.069 45.6123C184.901 45.3525 184.673 45.1543 184.386 45.0176C184.099 44.8763 183.773 44.8057 183.408 44.8057C183.021 44.8057 182.684 44.8854 182.396 45.0449C182.114 45.1999 181.895 45.4209 181.74 45.708C181.585 45.9906 181.508 46.3232 181.508 46.7061H180.264C180.264 46.1045 180.403 45.5758 180.681 45.1201C180.959 44.6644 181.337 44.3112 181.815 44.0605C182.294 43.8053 182.836 43.6777 183.442 43.6777C184.049 43.6777 184.584 43.8053 185.049 44.0605C185.518 44.3112 185.885 44.6507 186.149 45.0791C186.418 45.5075 186.553 45.9883 186.553 46.5215C186.553 46.8906 186.487 47.2507 186.354 47.6016C186.222 47.9479 185.99 48.3421 185.657 48.7842C185.325 49.2262 184.857 49.7663 184.256 50.4043L182.027 52.7764V52.8584H186.724V54H180.236ZM188.33 51.9287V50.8691L192.787 43.8145H193.573V45.4414H193.047L189.718 50.7051V50.7871H195.747V51.9287H188.33ZM193.122 54V51.6143L193.129 51.1152V43.8145H194.366V54H193.122Z" fill="#6D7178"/>
<defs>
<clipPath id="clip0_1_7039">
<rect width="126" height="31" fill="white"/>
</clipPath>
</defs>
</svg>
